#!OML:ASF F:\VICON\USERDATA\INSTALL\rory3\rory3.ASF
:FULLY-SPECIFIED
:DEGREES
57
root -0.9393071813235666 17.11618142459329 16.77028342058769 2.8188609056978686 0.6138456096520282 -4.91747288181362
lfemur -28.694539950525716 5.218414598318821 -13.153528930462098
ltibia 99.88080052277746
lfoot -3.3967154856122392 -11.108408704881278
ltoes -2.8065588821312017
rfemur -0.7664530837001671 2.7400850365387766 33.1840337521734
rtibia 62.55719066254921
rfoot -16.39601251561744 -10.728174239634729
rtoes -7.577855045727365
lowerback 17.22694412957991 1.6285299474972228 4.5689085998782195
upperback -0.08619370039992325 3.080708552130006 2.2076132064716005
thorax -9.864290148058634 1.2166686766515382 -0.9751176866661931
lowerneck -20.457300735392426 -4.884956539729735 -1.6901103662757793
upperneck 9.54292118659009 -6.57259642095814 2.0297301737823243
head 6.481338677651969 -3.0305104640658547 0.04077671440637087
lclavicle -6.477657499187389e-16 -4.8606873571652514e-15
lhumerus -54.297454854592 -14.074356803086271 100.5812970334839
lradius 105.24806837681123
lwrist 35.24636958153899
lhand -32.00870826941984 0.7835932710995268
lfingers 7.125019999999998
lthumb -5.726445534586967 30.456583040991536
rclavicle -6.4776574998773405e-16 -4.8606873572133585e-15
rhumerus -45.22253341681157 11.781571816415333 -96.52962358187389
rradius 118.17641253779361
rwrist -15.803249066746444
rhand -17.981485581041614 35.97086759180332
rfingers 7.125019999999998
rthumb 8.433878998701148 6.42148354107272
58
root -0.910961069122987 17.218674835667592 16.8481999695468 3.1489057200127455 1.1443648624487348 -4.692881782277462
lfemur -29.985998628019598 4.526257474343511 -14.197173412211335
ltibia 97.09223304352045
lfoot -5.3332731644528675 -11.189217275498862
ltoes -3.9921826936308413
rfemur -0.5015446067930824 2.319460611536429 32.580513982915505
rtibia 61.644337788595955
rfoot -14.104813259289358 -9.587733913096173
rtoes -9.002853758799716
lowerback 16.81451667653871 1.633595892086546 4.5084502111676965
upperback -0.2564159884833195 3.0730293230441252 2.025388854444086
thorax -9.848559958671313 1.2513320353209272 -1.1709610607693257
lowerneck -20.266346207519813 -4.939846903423122 -1.7245614528706827
upperneck 9.943964729192032 -6.702365343457968 2.047750556392472
head 6.56171527509543 -3.095028088723211 0.029769293459518287
lclavicle -6.4776574991691485e-16 -4.860687357164715e-15
lhumerus -55.68492470157861 -14.030116942080259 100.71858711026859
lradius 106.13525215786457
lwrist 36.97920221194569
lhand -31.21187504429498 0.6210939793889884
lfingers 7.125019999999998
lthumb -5.0010586993848145 30.257624499440087
rclavicle -6.477657499922009e-16 -4.860687357217306e-15
rhumerus -44.59108116013313 12.341090701086527 -96.11186214861532
rradius 119.23792129566164
rwrist -16.225661039352875
rhand -18.055707928703757 36.31444591626223
rfingers 7.125019999999998
rthumb 8.40060206285544 7.191290432636314
59
root -0.8503630116799619 17.38062536064503 18.058085959524497 3.367269131424201 1.8787428889473825 -4.351547568081823
lfemur -30.733000223024973 3.5735000866452418 -15.454801586441725
ltibia 93.61213383960765
lfoot -7.207688140743951 -11.353489253641671
ltoes -4.881145959992671
rfemur -0.6646415216732606 1.8908279728112676 31.798188863726168
rtibia 59.86360917599719
rfoot -11.177279274922766 -8.534308669251235
rtoes -8.777791446421702
lowerback 16.2434810780908 1.5838766596080376 4.442495384080313
upperback -0.44603054000839726 3.010256106744636 1.868050607149173
thorax -9.699723435733732 1.2503251999022478 -1.3786876321381936
lowerneck -19.985233417201353 -4.972500395401042 -1.753093508528227
upperneck 10.479957044331245 -6.77699252844145 2.0407720818630715
head 6.678988859891844 -3.1322150731614515 0.024238967510350595
lclavicle -6.477657499154166e-16 -4.86068735716445e-15
lhumerus -56.85821384380297 -13.68369537717846 100.64214665227931
lradius 106.87523297468161
lwrist 38.202361299841684
lhand -31.18579794506196 0.9944774343302742
lfingers 7.125019999999998
lthumb -5.015079820678508 30.656278840075764
rclavicle -6.477657499943593e-16 -4.860687357219606e-15
rhumerus -44.26013083708806 12.785487857363982 -95.72690044589096
rradius 120.44388746066198
rwrist -16.267745642148085
rhand -18.12570150897411 36.80997423958876
rfingers 7.125019999999998
rthumb 8.254607984388716 8.119730953555376
60
root -0.8160899145914206 17.572375448926437 18.510520952027232 3.5670545779019434 2.360949021664295 -4.150590962117604
lfemur -30.677254806005458 2.5165215746007807 -16.416651632911673
ltibia 89.2584705440999
lfoot -8.683006359989822 -11.592536839152219
ltoes -6.940340034916191
rfemur -1.3209394594313615 1.726731269778682 31.263502249615918
rtibia 57.54368262327699
rfoot -8.089744809613244 -7.801848871848381
rtoes -8.442705079809459
lowerback 15.667147048224967 1.5420447192658315 4.426181948647661
upperback -0.6950409992945105 2.928535510578045 1.712607784022619
thorax -9.660433376267516 1.2230043297230453 -1.4395534562730639
lowerneck -19.64102051569068 -4.968488910392361 -1.77923634526797
upperneck 11.127130700360969 -6.808964469183201 1.978384220165672
head 6.830178107473619 -3.1490683121512943 -0.0013850487241884313
lclavicle -6.477657499197013e-16 -4.860687357167971e-15
lhumerus -57.73670928553707 -13.018467984355233 100.39274229800742
lradius 107.40044301814244
lwrist 39.32764814919882
lhand -31.305980111599148 1.203973714771711
lfingers 7.125019999999998
lthumb -5.115570444277609 30.877657859842266
rclavicle -6.477657499864924e-16 -4.860687357214552e-15
rhumerus -44.063777009074606 13.220396746121889 -95.414868115546
rradius 121.68806765206641
rwrist -15.991612943928972
rhand -18.296770768374678 37.069530322633376
rfingers 7.125019999999998
rthumb 8.166154212066566 9.04153229786512
